<!-- icon666.com - MILLIONS vector ICONS FREE --><svg version="1.1" id="Capa_1" xmlns="http://www.w3.org/2000/svg" xmlns:xlink="http://www.w3.org/1999/xlink" x="0px" y="0px" viewBox="0 0 612 612" style="enable-background:new 0 0 612 612;" xml:space="preserve"><g><g id="_x31__24_"><g><path d="M392.751,289.189l-146.44-146.44c-7.478-7.478-19.584-7.478-27.043,0c-7.478,7.478-7.478,19.584,0,27.043L355.457,306 L219.268,442.189c-7.478,7.478-7.478,19.584,0,27.042c7.478,7.479,19.584,7.479,27.043,0l146.44-146.439 c4.59-4.59,6.005-10.863,4.973-16.811C398.756,300.071,397.322,293.779,392.751,289.189z M306,0C136.992,0,0,137.012,0,306 c0,169.008,136.992,306,306,306s306-136.992,306-306C612,137.012,475.008,0,306,0z M306,573.75 C158.125,573.75,38.25,453.875,38.25,306C38.25,158.125,158.125,38.25,306,38.25c147.875,0,267.75,119.875,267.75,267.75 C573.75,453.875,453.875,573.75,306,573.75z" fill="#000000" style="fill: rgb(255, 255, 255);"></path></g></g></g></svg>